<svg width="32" height="32" viewBox="0 0 32 32" fill="none" xmlns="http://www.w3.org/2000/svg">
<path d="M17.6187 16L25.8219 6.22188C25.9594 6.05938 25.8437 5.8125 25.6312 5.8125H23.1375C22.9906 5.8125 22.85 5.87812 22.7531 5.99062L15.9875 14.0562L9.22188 5.99062C9.12813 5.87812 8.9875 5.8125 8.8375 5.8125H6.34376C6.13126 5.8125 6.01563 6.05938 6.15313 6.22188L14.3563 16L6.15313 25.7781C6.12233 25.8143 6.10257 25.8586 6.0962 25.9058C6.08982 25.9529 6.0971 26.0008 6.11717 26.0439C6.13724 26.087 6.16926 26.1235 6.20943 26.1489C6.24959 26.1744 6.29621 26.1878 6.34376 26.1875H8.8375C8.98438 26.1875 9.125 26.1219 9.22188 26.0094L15.9875 17.9438L22.7531 26.0094C22.8469 26.1219 22.9875 26.1875 23.1375 26.1875H25.6312C25.8437 26.1875 25.9594 25.9406 25.8219 25.7781L17.6187 16Z" fill="white"/>
</svg>
